# WaveFront *.obj file (generated by Autodesk ATF)

mtllib 9e655353-f449-446b-996d-c0a4950caf3a.mtl

g bottom

v 150.000000 6.000000 -86.602540
v 0.000000 6.000000 -173.205081
v 0.000000 12.000000 -173.205081
v 150.000000 12.000000 -86.602540
v 150.000000 6.000000 86.602540
v 150.000000 12.000000 86.602540
v -0.000000 6.000000 173.205081
v -0.000000 12.000000 173.205081
v -150.000000 6.000000 86.602540
v -150.000000 12.000000 86.602540
v -150.000000 6.000000 -86.602540
v -150.000000 12.000000 -86.602540
vt 0.000000 0.000000 0.000000
vt 17.320508 0.000000 0.000000
vt 0.000000 0.600000 0.000000
vt 17.320508 0.600000 0.000000
vt 0.000000 0.000000 0.000000
vt 17.320508 0.000000 0.000000
vt 0.000000 0.600000 0.000000
vt 17.320508 0.600000 0.000000
vt 0.000000 0.000000 0.000000
vt 17.320508 0.000000 0.000000
vt 0.000000 0.600000 0.000000
vt 17.320508 0.600000 0.000000
vt 0.000000 0.000000 0.000000
vt 17.320508 0.000000 0.000000
vt 0.000000 0.600000 0.000000
vt 17.320508 0.600000 0.000000
vt 0.000000 0.000000 0.000000
vt 17.320508 0.000000 0.000000
vt 0.000000 0.600000 0.000000
vt 17.320508 0.600000 0.000000
vt 0.000000 0.000000 0.000000
vt 17.320508 0.000000 0.000000
vt 0.000000 0.600000 0.000000
vt 17.320508 0.600000 0.000000
vt -8.660254 -15.000000 0.000000
vt 8.660254 -15.000000 0.000000
vt -17.320508 -0.000000 0.000000
vt 17.320508 -0.000000 0.000000
vt -8.660254 15.000000 0.000000
vt 8.660254 15.000000 0.000000
vt -15.000000 -8.660254 0.000000
vt -0.000000 -17.320508 0.000000
vt -15.000000 8.660254 0.000000
vt -0.000000 17.320508 0.000000
vt 15.000000 -8.660254 0.000000
vt 15.000000 8.660254 0.000000
vn 0.050000 0.000000 -0.086603
vn 0.050000 0.000000 -0.086603
vn 0.050000 0.000000 -0.086603
vn 0.050000 0.000000 -0.086603
vn 0.100000 -0.000000 0.000000
vn 0.100000 -0.000000 0.000000
vn 0.100000 -0.000000 0.000000
vn 0.100000 -0.000000 0.000000
vn 0.050000 -0.000000 0.086603
vn 0.050000 -0.000000 0.086603
vn 0.050000 -0.000000 0.086603
vn 0.050000 -0.000000 0.086603
vn -0.050000 0.000000 0.086603
vn -0.050000 0.000000 0.086603
vn -0.050000 0.000000 0.086603
vn -0.050000 0.000000 0.086603
vn -0.100000 0.000000 -0.000000
vn -0.100000 0.000000 -0.000000
vn -0.100000 0.000000 -0.000000
vn -0.100000 0.000000 -0.000000
vn -0.050000 0.000000 -0.086603
vn -0.050000 0.000000 -0.086603
vn -0.050000 0.000000 -0.086603
vn -0.050000 0.000000 -0.086603
vn 0.000000 0.100000 0.000000
vn 0.000000 0.100000 0.000000
vn 0.000000 0.100000 0.000000
vn 0.000000 0.100000 0.000000
vn 0.000000 0.100000 0.000000
vn 0.000000 0.100000 0.000000
vn 0.000000 -0.100000 0.000000
vn 0.000000 -0.100000 0.000000
vn 0.000000 -0.100000 0.000000
vn 0.000000 -0.100000 0.000000
vn 0.000000 -0.100000 0.000000
vn 0.000000 -0.100000 0.000000
usemtl Steel_-_Satin
f 1/1/1 2/2/2 4/3/3
f 4/3/3 2/2/2 3/4/4
f 5/5/5 1/6/6 6/7/7
f 6/7/7 1/6/6 4/8/8
f 7/9/9 5/10/10 8/11/11
f 8/11/11 5/10/10 6/12/12
f 9/13/13 7/14/14 10/15/15
f 10/15/15 7/14/14 8/16/16
f 11/17/17 9/18/18 12/19/19
f 12/19/19 9/18/18 10/20/20
f 2/21/21 11/22/22 3/23/23
f 3/23/23 11/22/22 12/24/24
f 12/25/25 10/26/26 3/27/27
f 3/27/27 10/26/26 8/28/28
f 3/27/27 8/28/28 4/29/29
f 4/29/29 8/28/28 6/30/30
f 11/31/31 2/32/32 9/33/33
f 9/33/33 2/32/32 7/34/34
f 7/34/34 2/32/32 1/35/35
f 7/34/34 1/35/35 5/36/36

g walls

v -0.000000 12.000000 150.205081
v -130.081416 12.000000 75.102540
v -130.081416 30.000000 75.102540
v -0.000000 30.000000 150.205081
v 130.081416 12.000000 75.102540
v 130.081416 30.000000 75.102540
v 130.081416 12.000000 -75.102540
v 130.081416 30.000000 -75.102540
v 0.000000 12.000000 -150.205081
v 0.000000 30.000000 -150.205081
v -130.081416 12.000000 -75.102540
v -130.081416 30.000000 -75.102540
v 0.000000 12.000000 -173.205081
v -150.000000 12.000000 -86.602540
v -150.000000 30.000000 -86.602540
v 0.000000 30.000000 -173.205081
v 150.000000 12.000000 -86.602540
v 150.000000 30.000000 -86.602540
v 150.000000 12.000000 86.602540
v 150.000000 30.000000 86.602540
v -0.000000 12.000000 173.205081
v -0.000000 30.000000 173.205081
v -150.000000 12.000000 86.602540
v -150.000000 30.000000 86.602540
vt 0.000000 0.000000 0.000000
vt 15.020508 0.000000 0.000000
vt 0.000000 1.800000 0.000000
vt 15.020508 1.800000 0.000000
vt -0.000000 0.000000 0.000000
vt 15.020508 0.000000 0.000000
vt -0.000000 1.800000 0.000000
vt 15.020508 1.800000 0.000000
vt -0.000000 0.000000 0.000000
vt 15.020508 0.000000 0.000000
vt -0.000000 1.800000 0.000000
vt 15.020508 1.800000 0.000000
vt -0.000000 0.000000 0.000000
vt 15.020508 0.000000 0.000000
vt -0.000000 1.800000 0.000000
vt 15.020508 1.800000 0.000000
vt 0.000000 0.000000 0.000000
vt 15.020508 0.000000 0.000000
vt 0.000000 1.800000 0.000000
vt 15.020508 1.800000 0.000000
vt 0.000000 0.000000 0.000000
vt 15.020508 0.000000 0.000000
vt 0.000000 1.800000 0.000000
vt 15.020508 1.800000 0.000000
vt 0.000000 0.000000 0.000000
vt 17.320508 0.000000 0.000000
vt 0.000000 1.800000 0.000000
vt 17.320508 1.800000 0.000000
vt 0.000000 0.000000 0.000000
vt 17.320508 0.000000 0.000000
vt 0.000000 1.800000 0.000000
vt 17.320508 1.800000 0.000000
vt 0.000000 0.000000 0.000000
vt 17.320508 0.000000 0.000000
vt 0.000000 1.800000 0.000000
vt 17.320508 1.800000 0.000000
vt 0.000000 0.000000 0.000000
vt 17.320508 0.000000 0.000000
vt 0.000000 1.800000 0.000000
vt 17.320508 1.800000 0.000000
vt -0.000000 0.000000 0.000000
vt 17.320508 0.000000 0.000000
vt -0.000000 1.800000 0.000000
vt 17.320508 1.800000 0.000000
vt 0.000000 0.000000 0.000000
vt 17.320508 0.000000 0.000000
vt 0.000000 1.800000 0.000000
vt 17.320508 1.800000 0.000000
vt -7.510254 -13.008142 0.000000
vt 8.660254 -15.000000 0.000000
vt 7.510254 -13.008142 0.000000
vt 17.320508 -0.000000 0.000000
vt 15.020508 -0.000000 0.000000
vt 7.510254 13.008142 0.000000
vt 8.660254 15.000000 0.000000
vt -8.660254 15.000000 0.000000
vt -15.020508 0.000000 0.000000
vt -17.320508 0.000000 0.000000
vt -8.660254 -15.000000 0.000000
vt -7.510254 13.008142 0.000000
vt -13.008142 7.510254 0.000000
vt -15.000000 -8.660254 0.000000
vt -13.008142 -7.510254 0.000000
vt 0.000000 -17.320508 0.000000
vt 0.000000 -15.020508 0.000000
vt 13.008142 -7.510254 0.000000
vt 15.000000 -8.660254 0.000000
vt 13.008142 7.510254 0.000000
vt 15.000000 8.660254 0.000000
vt -0.000000 17.320508 0.000000
vt -0.000000 15.020508 0.000000
vt -15.000000 8.660254 0.000000
vn 0.050000 0.000000 -0.086603
vn 0.050000 0.000000 -0.086603
vn 0.050000 0.000000 -0.086603
vn 0.050000 0.000000 -0.086603
vn -0.050000 0.000000 -0.086603
vn -0.050000 0.000000 -0.086603
vn -0.050000 0.000000 -0.086603
vn -0.050000 0.000000 -0.086603
vn -0.100000 0.000000 -0.000000
vn -0.100000 0.000000 -0.000000
vn -0.100000 0.000000 -0.000000
vn -0.100000 0.000000 -0.000000
vn -0.050000 0.000000 0.086603
vn -0.050000 0.000000 0.086603
vn -0.050000 0.000000 0.086603
vn -0.050000 0.000000 0.086603
vn 0.050000 -0.000000 0.086603
vn 0.050000 -0.000000 0.086603
vn 0.050000 -0.000000 0.086603
vn 0.050000 -0.000000 0.086603
vn 0.100000 -0.000000 0.000000
vn 0.100000 -0.000000 0.000000
vn 0.100000 -0.000000 0.000000
vn 0.100000 -0.000000 0.000000
vn -0.050000 0.000000 -0.086603
vn -0.050000 0.000000 -0.086603
vn -0.050000 0.000000 -0.086603
vn -0.050000 0.000000 -0.086603
vn 0.050000 0.000000 -0.086603
vn 0.050000 0.000000 -0.086603
vn 0.050000 0.000000 -0.086603
vn 0.050000 0.000000 -0.086603
vn 0.100000 -0.000000 0.000000
vn 0.100000 -0.000000 0.000000
vn 0.100000 -0.000000 0.000000
vn 0.100000 -0.000000 0.000000
vn 0.050000 -0.000000 0.086603
vn 0.050000 -0.000000 0.086603
vn 0.050000 -0.000000 0.086603
vn 0.050000 -0.000000 0.086603
vn -0.050000 0.000000 0.086603
vn -0.050000 0.000000 0.086603
vn -0.050000 0.000000 0.086603
vn -0.050000 0.000000 0.086603
vn -0.100000 0.000000 -0.000000
vn -0.100000 0.000000 -0.000000
vn -0.100000 0.000000 -0.000000
vn -0.100000 0.000000 -0.000000
vn 0.000000 0.100000 0.000000
vn 0.000000 0.100000 0.000000
vn 0.000000 0.100000 0.000000
vn 0.000000 0.100000 0.000000
vn 0.000000 0.100000 0.000000
vn 0.000000 0.100000 0.000000
vn 0.000000 0.100000 0.000000
vn 0.000000 0.100000 0.000000
vn 0.000000 0.100000 0.000000
vn 0.000000 0.100000 0.000000
vn 0.000000 0.100000 0.000000
vn 0.000000 0.100000 0.000000
vn 0.000000 -0.100000 0.000000
vn 0.000000 -0.100000 0.000000
vn 0.000000 -0.100000 0.000000
vn 0.000000 -0.100000 0.000000
vn 0.000000 -0.100000 0.000000
vn 0.000000 -0.100000 0.000000
vn 0.000000 -0.100000 0.000000
vn 0.000000 -0.100000 0.000000
vn 0.000000 -0.100000 0.000000
vn 0.000000 -0.100000 0.000000
vn 0.000000 -0.100000 0.000000
vn 0.000000 -0.100000 0.000000
f 13/37/37 14/38/38 16/39/39
f 16/39/39 14/38/38 15/40/40
f 17/41/41 13/42/42 18/43/43
f 18/43/43 13/42/42 16/44/44
f 19/45/45 17/46/46 20/47/47
f 20/47/47 17/46/46 18/48/48
f 21/49/49 19/50/50 22/51/51
f 22/51/51 19/50/50 20/52/52
f 23/53/53 21/54/54 24/55/55
f 24/55/55 21/54/54 22/56/56
f 14/57/57 23/58/58 15/59/59
f 15/59/59 23/58/58 24/60/60
f 25/61/61 26/62/62 28/63/63
f 28/63/63 26/62/62 27/64/64
f 29/65/65 25/66/66 30/67/67
f 30/67/67 25/66/66 28/68/68
f 31/69/69 29/70/70 32/71/71
f 32/71/71 29/70/70 30/72/72
f 33/73/73 31/74/74 34/75/75
f 34/75/75 31/74/74 32/76/76
f 35/77/77 33/78/78 36/79/79
f 36/79/79 33/78/78 34/80/80
f 26/81/81 35/82/82 27/83/83
f 27/83/83 35/82/82 36/84/84
f 24/85/85 36/86/86 15/87/87
f 15/87/87 36/86/86 34/88/88
f 15/87/87 34/88/88 16/89/89
f 16/89/89 34/88/88 18/90/90
f 18/90/90 34/88/88 32/91/91
f 18/90/90 32/91/91 30/92/92
f 22/93/93 28/94/94 24/85/85
f 24/85/85 28/94/94 27/95/95
f 24/85/85 27/95/95 36/86/86
f 22/93/93 20/96/96 28/94/94
f 28/94/94 20/96/96 30/92/92
f 30/92/92 20/96/96 18/90/90
f 14/97/97 26/98/98 23/99/99
f 23/99/99 26/98/98 25/100/100
f 23/99/99 25/100/100 21/101/101
f 21/101/101 25/100/100 19/102/102
f 19/102/102 25/100/100 29/103/103
f 19/102/102 29/103/103 17/104/104
f 17/104/104 29/103/103 31/105/105
f 17/104/104 31/105/105 33/106/106
f 13/107/107 33/106/106 14/97/97
f 14/97/97 33/106/106 35/108/108
f 14/97/97 35/108/108 26/98/98
f 13/107/107 17/104/104 33/106/106

# 36 vertices
# 108 texture params
# 108 normals
# 68 facets

# 2 groups
